HIERARCHY
ROOT SpineBase
{
  OFFSET 0.000000 0.000000 0.000000
  CHANNELS 6 Xposition Yposition Zposition Zrotation Xrotation Yrotation
  JOINT SpineMid
  {
    OFFSET 0.000000 27.569250 0.000000
    CHANNELS 3 Zrotation Xrotation Yrotation
    JOINT SpineShoulder
    {
      OFFSET -0.037547 20.495599 -0.618713
      CHANNELS 3 Zrotation Xrotation Yrotation
      JOINT Neck
      {
        OFFSET -0.028506 6.784142 -0.481997
        CHANNELS 3 Zrotation Xrotation Yrotation
        JOINT Head
        {
          OFFSET -1.873933 12.203173 -0.686159
          CHANNELS 3 Zrotation Xrotation Yrotation
          End Site
          {
            OFFSET 0 0 0
          }
        }
      }
      JOINT ShoulderLeft
      {
        OFFSET -16.234127 -2.887184 3.712168
        CHANNELS 3 Zrotation Xrotation Yrotation
        JOINT ElbowLeft
        {
          OFFSET -2.480990 -26.270136 0.435956
          CHANNELS 3 Zrotation Xrotation Yrotation
          JOINT WristLeft
          {
            OFFSET -1.289233 -19.114351 -13.383231
            CHANNELS 3 Zrotation Xrotation Yrotation
            JOINT HandLeft
            {
              OFFSET -0.341668 -3.771759 -4.629721
              CHANNELS 3 Zrotation Xrotation Yrotation
              JOINT HandTipLeft
              {
                OFFSET 2.003035 -4.493384 -3.333629
                CHANNELS 3 Zrotation Xrotation Yrotation
                End Site
                {
                  OFFSET 0 0 0
                }
              }
              JOINT ThumbLeft
              {
                OFFSET -4.127979 0.449946 -2.228603
                CHANNELS 3 Zrotation Xrotation Yrotation
                End Site
                {
                  OFFSET 0 0 0
                }
              }
            }
          }
        }
      }
      JOINT ShoulderRight
      {
        OFFSET 15.412926 -2.181830 -5.245269
        CHANNELS 3 Zrotation Xrotation Yrotation
        JOINT ElbowRight
        {
          OFFSET 7.862841 -21.273147 -1.341505
          CHANNELS 3 Zrotation Xrotation Yrotation
          JOINT WristRight
          {
            OFFSET -8.687690 -16.313224 -10.011490
            CHANNELS 3 Zrotation Xrotation Yrotation
            JOINT HandRight
            {
              OFFSET -5.678144 -2.773768 -3.455077
              CHANNELS 3 Zrotation Xrotation Yrotation
              JOINT HandTipRight
              {
                OFFSET -2.568175 -4.007589 -2.273819
                CHANNELS 3 Zrotation Xrotation Yrotation
                End Site
                {
                  OFFSET 0 0 0
                }
              }
              JOINT ThumbRight
              {
                OFFSET 0.647543 -1.491958 0.126320
                CHANNELS 3 Zrotation Xrotation Yrotation
                End Site
                {
                  OFFSET 0 0 0
                }
              }
            }
          }
        }
      }
    }
  }
  JOINT HipLeft
  {
    OFFSET -7.750273 -0.172067 -1.587791
    CHANNELS 3 Zrotation Xrotation Yrotation
    JOINT KneeLeft
    {
      OFFSET -4.700891 -33.815069 3.728738
      CHANNELS 3 Zrotation Xrotation Yrotation
      JOINT AnkleLeft
      {
        OFFSET -1.888758 -36.051947 7.243199
        CHANNELS 3 Zrotation Xrotation Yrotation
        JOINT FootLeft
        {
          OFFSET -2.593146 -5.435680 -7.538982
          CHANNELS 3 Zrotation Xrotation Yrotation
          End Site
          {
            OFFSET 0 0 0
          }
        }
      }
    }
  }
  JOINT HipRight
  {
    OFFSET 7.229970 1.134754 -4.792321
    CHANNELS 3 Zrotation Xrotation Yrotation
    JOINT KneeRight
    {
      OFFSET 3.517652 -31.733296 4.628087
      CHANNELS 3 Zrotation Xrotation Yrotation
      JOINT AnkleRight
      {
        OFFSET 1.103310 -33.941600 8.878222
        CHANNELS 3 Zrotation Xrotation Yrotation
        JOINT FootRight
        {
          OFFSET -0.487214 -6.521262 -6.514510
          CHANNELS 3 Zrotation Xrotation Yrotation
          End Site
          {
            OFFSET 0 0 0
          }
        }
      }
    }
  }
}
MOTION
Frames: 6
Frame Time: 0.033333
31.114955 80.370925 380.151087 -1.393059 -0.352067 23.881486 -0.147314 0.164169 -23.932443 -0.073484 -0.098689 -0.072656 8.784102 4.580187 0.848284 0.000000 0.000000 0.000000 -114.296435 4.385637 3.714821 -153.723842 4.200514 -72.736421 -18.782430 -14.718834 -14.335009 14.945207 10.979866 33.035046 0.000000 0.000000 0.000000 0.000000 0.000000 0.000000 39.391544 70.792427 -0.297297 -135.069306 51.533470 10.772888 27.088205 -34.014510 -5.766816 -31.964255 -6.939629 -5.133791 0.000000 0.000000 0.000000 0.000000 0.000000 0.000000 3.914352 0.552749 -23.914910 -1.962133 -1.738690 -0.004414 -4.866963 6.412976 3.609561 0.000000 0.000000 0.000000 5.927725 -0.925866 -23.063471 -2.760415 -2.016489 -0.363620 -18.566846 19.446469 15.475264 0.000000 0.000000 0.000000
31.113470 80.540594 380.143407 -1.543059 -0.338318 23.878621 -0.196924 0.143681 -23.935831 -0.102431 -0.129763 -0.083154 9.905860 4.520913 0.854976 0.000000 0.000000 0.000000 -114.048686 4.752499 4.286805 -153.969294 8.054063 -73.545524 -12.303835 -18.025114 -12.081649 13.097997 13.833686 30.986112 0.000000 0.000000 0.000000 0.000000 0.000000 0.000000 43.462631 71.225916 -3.173301 -140.665660 51.204404 14.196794 26.824319 -29.292512 -6.291813 -33.293605 -6.327924 -4.652394 0.000000 0.000000 0.000000 0.000000 0.000000 0.000000 4.122891 0.397754 -23.888536 -2.066314 -1.694231 -0.022791 -3.646126 2.559844 3.744481 0.000000 0.000000 0.000000 5.933429 -0.953618 -23.077470 -2.527788 -1.930064 -0.312263 -18.067379 18.545298 14.888103 0.000000 0.000000 0.000000
31.123894 80.696005 380.122313 -1.684555 -0.387089 23.802588 -0.218999 0.093908 -23.866091 -0.102278 -0.162441 -0.089946 10.684264 4.516900 0.838597 0.000000 0.000000 0.000000 -113.491992 5.190119 5.027685 -154.308268 12.239064 -74.676097 -3.602402 -23.071518 -7.661456 8.955807 18.230086 27.862172 0.000000 0.000000 0.000000 0.000000 0.000000 0.000000 51.620801 72.945036 -9.408452 -146.917733 49.586373 15.409457 27.973677 -24.680268 -5.785540 -32.690260 -1.420000 -2.308761 0.000000 0.000000 0.000000 0.000000 0.000000 0.000000 4.322928 0.296687 -23.792019 -2.151848 -1.628238 -0.041349 -3.448886 1.853287 3.814628 0.000000 0.000000 0.000000 5.901819 -0.899400 -23.035374 -2.240443 -1.711005 -0.250137 -17.885905 18.109272 14.561820 0.000000 0.000000 0.000000
31.121468 80.854834 380.100874 -1.799340 -0.460618 23.745113 -0.206382 0.011296 -23.813825 -0.071779 -0.199863 -0.091868 10.905143 4.932302 0.830540 0.000000 0.000000 0.000000 -113.197576 6.354745 6.773179 -155.192069 15.868722 -74.107544 1.187110 -25.830472 -4.628506 7.031341 21.335845 25.314765 0.000000 0.000000 0.000000 0.000000 0.000000 0.000000 65.292551 75.136039 -20.653714 -152.844727 46.924991 14.044487 28.044289 -17.868874 -4.231303 -29.622875 0.502037 -3.425871 0.000000 0.000000 0.000000 0.000000 0.000000 0.000000 4.576197 0.239730 -23.715659 -2.294366 -1.599938 -0.062367 -2.197144 -2.321665 4.188452 0.000000 0.000000 0.000000 5.857149 -0.820067 -23.014631 -2.021397 -1.705241 -0.209732 -18.050159 18.449697 14.674871 0.000000 0.000000 0.000000
31.133418 80.997835 380.080764 -1.889342 -0.501967 23.656723 -0.204679 -0.037102 -23.729600 -0.056665 -0.217405 -0.094333 11.047595 5.005434 0.814888 0.000000 0.000000 0.000000 -112.707483 7.705779 8.601302 -156.469683 18.375549 -72.820163 3.328352 -27.780296 -2.369325 2.045124 23.739794 24.833755 0.000000 0.000000 0.000000 0.000000 0.000000 0.000000 85.005138 76.599561 -37.539430 -158.474960 43.902327 11.178155 25.194368 -23.520290 -0.097815 -24.315765 19.110594 1.034481 0.000000 0.000000 0.000000 0.000000 0.000000 0.000000 4.712069 0.153030 -23.607963 -2.367185 -1.526618 -0.080019 -2.716222 -1.193834 4.320724 0.000000 0.000000 0.000000 5.741571 -0.742613 -22.967321 -1.695669 -1.645730 -0.143209 -18.641515 19.321336 15.091717 0.000000 0.000000 0.000000
31.152192 81.104552 380.053929 -2.001947 -0.535732 23.524761 -0.217628 -0.058931 -23.602856 -0.062009 -0.227787 -0.100002 11.268756 4.870645 0.795703 0.000000 0.000000 0.000000 -112.323938 9.197742 10.567608 -157.737651 19.620888 -70.801989 0.740459 -29.335919 -0.858901 -4.741373 26.668014 25.517297 0.000000 0.000000 0.000000 0.000000 0.000000 0.000000 106.358560 76.450987 -55.975873 -164.203479 44.426330 11.296467 29.374280 -45.735490 1.880435 -33.925356 48.125359 19.284792 0.000000 0.000000 0.000000 0.000000 0.000000 0.000000 4.800781 0.045314 -23.457086 -3.100675 -1.013371 -0.275342 -3.358499 2.028331 4.504343 0.000000 0.000000 0.000000 5.744880 -0.665901 -22.856153 -1.612338 -1.491762 -0.137570 -19.395887 20.594350 15.788513 0.000000 0.000000 0.000000
